<svg width="8" height="49" viewBox="0 0 8 49" fill="none" xmlns="http://www.w3.org/2000/svg">
<path d="M4 40.4297C1.79086 40.4297 -1.84552e-06 42.2205 -1.94208e-06 44.4297C-2.03865e-06 46.6388 1.79086 48.4297 4 48.4297C6.20914 48.4297 8 46.6388 8 44.4297C8 42.2205 6.20914 40.4297 4 40.4297ZM3.25 -3.27835e-08L3.25 0.584601L4.75 0.584601L4.75 3.27835e-08L3.25 -3.27835e-08ZM3.25 1.7538L3.25 2.92301L4.75 2.92301L4.75 1.7538L3.25 1.7538ZM3.25 4.09221L3.25 5.26141L4.75 5.26141L4.75 4.09221L3.25 4.09221ZM3.25 6.43061L3.25 7.59982L4.75 7.59982L4.75 6.43061L3.25 6.43061ZM3.25 8.76902L3.25 9.93822L4.75 9.93822L4.75 8.76902L3.25 8.76902ZM3.25 11.1074L3.25 12.2766L4.75 12.2766L4.75 11.1074L3.25 11.1074ZM3.25 13.4458L3.25 14.615L4.75 14.615L4.75 13.4458L3.25 13.4458ZM3.25 15.7842L3.25 16.9534L4.75 16.9534L4.75 15.7842L3.25 15.7842ZM3.25 18.1226L3.25 19.2918L4.75 19.2918L4.75 18.1226L3.25 18.1226ZM3.25 20.461L3.25 21.6302L4.75 21.6302L4.75 20.461L3.25 20.461ZM3.25 22.7995L3.25 23.9687L4.75 23.9687L4.75 22.7995L3.25 22.7995ZM3.25 25.1379L3.25 26.3071L4.75 26.3071L4.75 25.1379L3.25 25.1379ZM3.25 27.4763L3.25 28.6455L4.75 28.6455L4.75 27.4763L3.25 27.4763ZM3.25 29.8147L3.25 30.9839L4.75 30.9839L4.75 29.8147L3.25 29.8147ZM3.25 32.1531L3.25 33.3223L4.75 33.3223L4.75 32.1531L3.25 32.1531ZM3.25 34.4915L3.25 35.6607L4.75 35.6607L4.75 34.4915L3.25 34.4915ZM3.25 36.8299L3.25 37.9991L4.75 37.9991L4.75 36.8299L3.25 36.8299ZM3.25 39.1683L3.25 40.3375L4.75 40.3375L4.75 39.1683L3.25 39.1683ZM3.25 41.5067L3.25 42.6759L4.75 42.6759L4.75 41.5067L3.25 41.5067ZM3.25 43.8451L3.25 44.4297L4.75 44.4297L4.75 43.8451L3.25 43.8451ZM4 40.4297C1.79086 40.4297 -1.84552e-06 42.2205 -1.94208e-06 44.4297C-2.03865e-06 46.6388 1.79086 48.4297 4 48.4297C6.20914 48.4297 8 46.6388 8 44.4297C8 42.2205 6.20914 40.4297 4 40.4297ZM3.25 -3.27835e-08L3.25 0.584601L4.75 0.584601L4.75 3.27835e-08L3.25 -3.27835e-08ZM3.25 1.7538L3.25 2.92301L4.75 2.92301L4.75 1.7538L3.25 1.7538ZM3.25 4.09221L3.25 5.26141L4.75 5.26141L4.75 4.09221L3.25 4.09221ZM3.25 6.43061L3.25 7.59982L4.75 7.59982L4.75 6.43061L3.25 6.43061ZM3.25 8.76902L3.25 9.93822L4.75 9.93822L4.75 8.76902L3.25 8.76902ZM3.25 11.1074L3.25 12.2766L4.75 12.2766L4.75 11.1074L3.25 11.1074ZM3.25 13.4458L3.25 14.615L4.75 14.615L4.75 13.4458L3.25 13.4458ZM3.25 15.7842L3.25 16.9534L4.75 16.9534L4.75 15.7842L3.25 15.7842ZM3.25 18.1226L3.25 19.2918L4.75 19.2918L4.75 18.1226L3.25 18.1226ZM3.25 20.461L3.25 21.6302L4.75 21.6302L4.75 20.461L3.25 20.461ZM3.25 22.7995L3.25 23.9687L4.75 23.9687L4.75 22.7995L3.25 22.7995ZM3.25 25.1379L3.25 26.3071L4.75 26.3071L4.75 25.1379L3.25 25.1379ZM3.25 27.4763L3.25 28.6455L4.75 28.6455L4.75 27.4763L3.25 27.4763ZM3.25 29.8147L3.25 30.9839L4.75 30.9839L4.75 29.8147L3.25 29.8147ZM3.25 32.1531L3.25 33.3223L4.75 33.3223L4.75 32.1531L3.25 32.1531ZM3.25 34.4915L3.25 35.6607L4.75 35.6607L4.75 34.4915L3.25 34.4915ZM3.25 36.8299L3.25 37.9991L4.75 37.9991L4.75 36.8299L3.25 36.8299ZM3.25 39.1683L3.25 40.3375L4.75 40.3375L4.75 39.1683L3.25 39.1683ZM3.25 41.5067L3.25 42.6759L4.75 42.6759L4.75 41.5067L3.25 41.5067ZM3.25 43.8451L3.25 44.4297L4.75 44.4297L4.75 43.8451L3.25 43.8451Z" fill="#B4AEE4"/>
</svg>
