<svg width="46" height="12" viewBox="0 0 46 12" fill="none" xmlns="http://www.w3.org/2000/svg">
<path d="M34.6667 6C34.6667 8.94552 37.0545 11.3333 40 11.3333C42.9455 11.3333 45.3333 8.94552 45.3333 6C45.3333 3.05448 42.9455 0.666667 40 0.666667C37.0545 0.666667 34.6667 3.05448 34.6667 6ZM2.60387e-08 7H1.66667L1.66667 5L-2.60387e-08 5L2.60387e-08 7ZM5 7L8.33333 7L8.33333 5L5 5L5 7ZM11.6667 7L15 7L15 5L11.6667 5L11.6667 7ZM18.3333 7L21.6667 7L21.6667 5L18.3333 5L18.3333 7ZM25 7L28.3333 7L28.3333 5L25 5L25 7ZM31.6667 7L35 7L35 5L31.6667 5L31.6667 7ZM38.3333 7L40 7L40 5L38.3333 5L38.3333 7ZM34.6667 6C34.6667 8.94552 37.0545 11.3333 40 11.3333C42.9455 11.3333 45.3333 8.94552 45.3333 6C45.3333 3.05448 42.9455 0.666667 40 0.666667C37.0545 0.666667 34.6667 3.05448 34.6667 6ZM2.60387e-08 7H1.66667L1.66667 5L-2.60387e-08 5L2.60387e-08 7ZM5 7L8.33333 7L8.33333 5L5 5L5 7ZM11.6667 7L15 7L15 5L11.6667 5L11.6667 7ZM18.3333 7L21.6667 7L21.6667 5L18.3333 5L18.3333 7ZM25 7L28.3333 7L28.3333 5L25 5L25 7ZM31.6667 7L35 7L35 5L31.6667 5L31.6667 7ZM38.3333 7L40 7L40 5L38.3333 5L38.3333 7Z" fill="#8884A8"/>
</svg>
