<svg width="8" height="29" viewBox="0 0 8 29" fill="none" xmlns="http://www.w3.org/2000/svg">
<path d="M4 21C1.79086 21 -9.96219e-07 22.7909 -1.09278e-06 25C-1.18935e-06 27.2091 1.79086 29 4 29C6.20914 29 8 27.2091 8 25C8 22.7909 6.20914 21 4 21ZM3.25 -3.27835e-08L3.25 0.625L4.75 0.625L4.75 3.27835e-08L3.25 -3.27835e-08ZM3.25 1.875L3.25 3.125L4.75 3.125L4.75 1.875L3.25 1.875ZM3.25 4.375L3.25 5.625L4.75 5.625L4.75 4.375L3.25 4.375ZM3.25 6.875L3.25 8.125L4.75 8.125L4.75 6.875L3.25 6.875ZM3.25 9.375L3.25 10.625L4.75 10.625L4.75 9.375L3.25 9.375ZM3.25 11.875L3.25 13.125L4.75 13.125L4.75 11.875L3.25 11.875ZM3.25 14.375L3.25 15.625L4.75 15.625L4.75 14.375L3.25 14.375ZM3.25 16.875L3.25 18.125L4.75 18.125L4.75 16.875L3.25 16.875ZM3.25 19.375L3.25 20.625L4.75 20.625L4.75 19.375L3.25 19.375ZM3.25 21.875L3.25 23.125L4.75 23.125L4.75 21.875L3.25 21.875ZM3.25 24.375L3.25 25L4.75 25L4.75 24.375L3.25 24.375ZM4 21C1.79086 21 -9.96219e-07 22.7909 -1.09278e-06 25C-1.18935e-06 27.2091 1.79086 29 4 29C6.20914 29 8 27.2091 8 25C8 22.7909 6.20914 21 4 21ZM3.25 -3.27835e-08L3.25 0.625L4.75 0.625L4.75 3.27835e-08L3.25 -3.27835e-08ZM3.25 1.875L3.25 3.125L4.75 3.125L4.75 1.875L3.25 1.875ZM3.25 4.375L3.25 5.625L4.75 5.625L4.75 4.375L3.25 4.375ZM3.25 6.875L3.25 8.125L4.75 8.125L4.75 6.875L3.25 6.875ZM3.25 9.375L3.25 10.625L4.75 10.625L4.75 9.375L3.25 9.375ZM3.25 11.875L3.25 13.125L4.75 13.125L4.75 11.875L3.25 11.875ZM3.25 14.375L3.25 15.625L4.75 15.625L4.75 14.375L3.25 14.375ZM3.25 16.875L3.25 18.125L4.75 18.125L4.75 16.875L3.25 16.875ZM3.25 19.375L3.25 20.625L4.75 20.625L4.75 19.375L3.25 19.375ZM3.25 21.875L3.25 23.125L4.75 23.125L4.75 21.875L3.25 21.875ZM3.25 24.375L3.25 25L4.75 25L4.75 24.375L3.25 24.375Z" fill="#53FF98"/>
</svg>
