<svg width="384" height="176" viewBox="0 0 384 176" fill="none" xmlns="http://www.w3.org/2000/svg">
<path fill-rule="evenodd" clip-rule="evenodd" d="M0.558105 5.29297L43.6904 166.28H78.3177L64.2223 113.67H109.747L99.8751 80.2577H55.2703L35.1854 5.29297H0.558105Z" fill="black"/>
<path fill-rule="evenodd" clip-rule="evenodd" d="M178.139 167.681L139.458 41.5934L104.224 40.2266L141.71 167.681H178.139Z" fill="black"/>
<path fill-rule="evenodd" clip-rule="evenodd" d="M295.102 32.4097L337.573 0.441406L348.412 34.0783L306.386 65.7117L313.764 87.4889L355.673 56.6136L366.59 90.4963L360.429 95.1572L325.052 120.805L332.266 142.096L373.271 111.231L383.936 144.328L343.107 174.094L343.178 174.302L342.918 174.232L341.597 175.195L341.136 173.753L300.906 162.921L266.763 54.012L295.012 32.1421L295.102 32.4097Z" fill="black"/>
<path fill-rule="evenodd" clip-rule="evenodd" d="M236.206 166.197L241.118 158.339L269.261 113.041L256.733 70.8962L221.003 125.866L211.814 95.9112H176.294L196.966 166.197H236.206ZM206.066 77.1738L195.158 41.6188L159.923 40.252L170.783 77.1738H206.066Z" fill="black"/>
</svg>
