<svg width="146" height="67" viewBox="0 0 146 67" fill="none" xmlns="http://www.w3.org/2000/svg">
<path fill-rule="evenodd" clip-rule="evenodd" d="M0.0703125 1.84375L16.4727 63.064H29.6409L24.2806 43.0574H41.5928L37.8387 30.3513H20.8763L13.2384 1.84375H0.0703125Z" fill="white"/>
<path fill-rule="evenodd" clip-rule="evenodd" d="M67.601 63.5976L52.8913 15.6487L39.4922 15.1289L53.7477 63.5976H67.601Z" fill="white"/>
<path fill-rule="evenodd" clip-rule="evenodd" d="M112.082 12.1567L128.232 0L132.354 12.7915L116.372 24.8208L119.178 33.1023L135.115 21.3612L139.267 34.2462L136.924 36.0185L123.471 45.7719L126.214 53.8682L141.807 42.1311L145.863 54.7176L130.337 66.0365L130.364 66.1157L130.265 66.0891L129.763 66.4553L129.587 65.9066L114.289 61.7877L101.305 20.3715L112.047 12.0548L112.082 12.1567Z" fill="white"/>
<path fill-rule="evenodd" clip-rule="evenodd" d="M89.6854 63.0325L91.5524 60.0453L102.255 42.819L97.4905 26.7922L83.9033 47.696L80.4086 36.3044H66.901L74.7622 63.0325H89.6854ZM78.2227 29.1789L74.0749 15.6585L60.6758 15.1387L64.8053 29.1789H78.2227Z" fill="white"/>
</svg>
