<svg width="149" height="14" viewBox="0 0 149 14" fill="none" xmlns="http://www.w3.org/2000/svg">
<path d="M0.0184679 0.392952H1.53241V4.71456H6.48712V0.392952H8.00105V10.3574H6.48712V6.00829H1.53241V10.3574H0.0184679V0.392952ZM14.0662 10.5088C13.3688 10.5088 12.7564 10.3482 12.2288 10.0271C11.7012 9.70597 11.2929 9.25638 11.0039 8.67833C10.7149 8.09569 10.5703 7.4213 10.5703 6.65515C10.5703 5.88442 10.7149 5.20774 11.0039 4.6251C11.2929 4.04246 11.7012 3.59057 12.2288 3.26944C12.7564 2.9483 13.3688 2.78773 14.0662 2.78773C14.7589 2.78773 15.3691 2.9483 15.8967 3.26944C16.4242 3.59057 16.8303 4.04476 17.1147 4.63198C17.4037 5.21462 17.5482 5.88901 17.5482 6.65515C17.5482 7.4213 17.4037 8.09569 17.1147 8.67833C16.8303 9.25638 16.4242 9.70597 15.8967 10.0271C15.3691 10.3482 14.7589 10.5088 14.0662 10.5088ZM14.0662 9.2839C14.502 9.2839 14.869 9.16692 15.1672 8.93294C15.4654 8.69897 15.6879 8.38471 15.8347 7.99017C15.9861 7.59104 16.0618 7.14604 16.0618 6.65515C16.0618 6.16427 15.9861 5.71926 15.8347 5.32013C15.6879 4.91642 15.4631 4.59528 15.1603 4.35672C14.8621 4.11816 14.4974 3.99888 14.0662 3.99888C13.6258 3.99888 13.2519 4.11816 12.9445 4.35672C12.6417 4.59528 12.4146 4.91642 12.2632 5.32013C12.1164 5.71926 12.043 6.16427 12.043 6.65515C12.043 7.14604 12.1164 7.59104 12.2632 7.99017C12.4146 8.38471 12.6417 8.69897 12.9445 8.93294C13.2519 9.16692 13.6258 9.2839 14.0662 9.2839ZM21.4525 10.3574H19.9799V2.88407H21.3975V4.10898H21.4801C21.6636 3.69609 21.9411 3.37266 22.3127 3.13869C22.6843 2.90471 23.1408 2.78773 23.6822 2.78773C24.2006 2.78773 24.6502 2.89554 25.0309 3.11116C25.4117 3.32219 25.7053 3.63874 25.9118 4.06081C26.1228 4.48288 26.2283 4.999 26.2283 5.60916V10.3574H24.7694V5.78808C24.7694 5.24673 24.6295 4.82237 24.3497 4.51499C24.0698 4.20762 23.6822 4.05393 23.1867 4.05393C22.8518 4.05393 22.5513 4.12733 22.2852 4.27414C22.0237 4.42095 21.8196 4.63657 21.6727 4.92101C21.5259 5.20085 21.4525 5.53576 21.4525 5.92571V10.3574ZM32.142 13.3165C31.5181 13.3165 30.9676 13.227 30.4905 13.0481C30.0179 12.8692 29.6418 12.6123 29.3619 12.2774C29.0866 11.9425 28.9261 11.5456 28.8802 11.0869H30.3804C30.4492 11.4309 30.6373 11.6901 30.9447 11.8645C31.252 12.0434 31.6558 12.1329 32.1558 12.1329C32.7614 12.1329 33.2316 11.9975 33.5665 11.7268C33.9014 11.4562 34.0689 11.0364 34.0689 10.4675V8.99488H33.9725C33.7844 9.33895 33.5252 9.63486 33.1949 9.8826C32.8692 10.1257 32.4035 10.2473 31.798 10.2473C31.2062 10.2473 30.6717 10.1028 30.1946 9.81378C29.722 9.52476 29.3504 9.10039 29.0798 8.5407C28.8091 7.981 28.6738 7.31578 28.6738 6.54505C28.6738 5.76973 28.8068 5.09993 29.0729 4.53564C29.3436 3.96676 29.7152 3.53323 30.1877 3.23503C30.6648 2.93683 31.2062 2.78773 31.8117 2.78773C32.2384 2.78773 32.5939 2.85884 32.8784 3.00106C33.1674 3.13869 33.3899 3.29926 33.5459 3.48276C33.7019 3.66168 33.8487 3.86584 33.9863 4.09522H34.0826V2.88407H35.514V10.5226C35.514 11.1419 35.3695 11.6603 35.0805 12.0778C34.7914 12.4953 34.3946 12.805 33.89 13.0068C33.3853 13.2133 32.8027 13.3165 32.142 13.3165ZM32.1283 9.03617C32.7522 9.03617 33.2339 8.82054 33.5734 8.3893C33.9129 7.95347 34.0826 7.34789 34.0826 6.57257C34.0826 6.06334 34.0069 5.61833 33.8556 5.23756C33.7042 4.85678 33.4817 4.56317 33.188 4.35672C32.8944 4.14568 32.5412 4.04017 32.1283 4.04017C31.7062 4.04017 31.3484 4.15027 31.0548 4.37048C30.7612 4.5861 30.5409 4.8866 30.3941 5.27196C30.2473 5.65274 30.1739 6.08628 30.1739 6.57257C30.1739 7.06346 30.2473 7.4947 30.3941 7.8663C30.5455 8.23332 30.768 8.52005 31.0616 8.7265C31.3553 8.93294 31.7108 9.03617 32.1283 9.03617ZM38.2897 2.88407H39.7624V10.3574H38.2897V2.88407ZM39.0329 1.72797C38.8678 1.72797 38.7118 1.68898 38.565 1.61098C38.4228 1.53299 38.3081 1.42748 38.2209 1.29443C38.1383 1.16139 38.0971 1.01688 38.0971 0.860896C38.0971 0.704915 38.1383 0.560403 38.2209 0.427359C38.3081 0.294316 38.4228 0.188799 38.565 0.110809C38.7118 0.0328178 38.8678 -0.00617763 39.0329 -0.00617763C39.1981 -0.00617763 39.3495 0.0328178 39.4871 0.110809C39.6293 0.188799 39.7417 0.294316 39.8243 0.427359C39.9115 0.560403 39.9551 0.704915 39.9551 0.860896C39.9551 1.01688 39.9115 1.16139 39.8243 1.29443C39.7417 1.42748 39.6293 1.53299 39.4871 1.61098C39.3495 1.68898 39.1981 1.72797 39.0329 1.72797ZM42.5381 0.392952H44.0108V6.03581H44.1346L47.0937 2.88407H48.8554L45.8344 6.09087L49.0618 10.3574H47.2589L44.7196 6.99923L44.0108 7.70115V10.3574H42.5381V0.392952ZM59.1964 8.49941H59.3065L62.0729 0.392952H63.7107L60.1185 10.3574H58.3706L54.7922 0.392952H56.43L59.1964 8.49941ZM68.3032 10.5088C67.5783 10.5088 66.9475 10.3505 66.4107 10.034C65.8786 9.71744 65.468 9.27014 65.1789 8.69209C64.8945 8.11404 64.7523 7.43965 64.7523 6.66892C64.7523 5.90736 64.8945 5.23297 65.1789 4.64574C65.468 4.05852 65.874 3.60204 66.397 3.27632C66.92 2.95059 67.5233 2.78773 68.2068 2.78773C68.8078 2.78773 69.3583 2.91848 69.8584 3.17998C70.3585 3.44147 70.7599 3.85437 71.0627 4.41865C71.37 4.97835 71.5237 5.68715 71.5237 6.54505V7.06805H66.2112C66.2249 7.5314 66.319 7.93283 66.4933 8.27232C66.6722 8.60722 66.9177 8.86183 67.2296 9.03617C67.5416 9.2105 67.904 9.29766 68.3169 9.29766C68.7161 9.29766 69.0533 9.22426 69.3285 9.07746C69.6038 8.92606 69.8079 8.72879 69.941 8.48564H71.4274C71.3173 8.88936 71.12 9.24491 70.8356 9.55228C70.5511 9.85507 70.191 10.0913 69.7552 10.2611C69.3239 10.4262 68.8399 10.5088 68.3032 10.5088ZM70.0786 5.967C70.0786 5.58622 70.0006 5.24673 69.8446 4.94853C69.6932 4.65033 69.4776 4.41865 69.1978 4.2535C68.9179 4.08375 68.5922 3.99888 68.2206 3.99888C67.8398 3.99888 67.5003 4.08834 67.2021 4.26726C66.9085 4.44159 66.6768 4.68015 66.5071 4.98294C66.3373 5.28114 66.241 5.60916 66.2181 5.967H70.0786ZM75.4418 10.3574H73.9691V2.88407H75.3867V4.10898H75.4693C75.6528 3.69609 75.9304 3.37266 76.302 3.13869C76.6736 2.90471 77.1301 2.78773 77.6714 2.78773C78.1898 2.78773 78.6394 2.89554 79.0202 3.11116C79.401 3.32219 79.6946 3.63874 79.901 4.06081C80.1121 4.48288 80.2176 4.999 80.2176 5.60916V10.3574H78.7587V5.78808C78.7587 5.24673 78.6188 4.82237 78.3389 4.51499C78.0591 4.20762 77.6714 4.05393 77.1759 4.05393C76.841 4.05393 76.5405 4.12733 76.2745 4.27414C76.013 4.42095 75.8088 4.63657 75.662 4.92101C75.5152 5.20085 75.4418 5.53576 75.4418 5.92571V10.3574ZM86.4891 4.05393H84.9614V8.15533C84.9614 8.53611 85.0394 8.79761 85.1954 8.93982C85.356 9.07746 85.5762 9.15086 85.856 9.16003C85.9845 9.16003 86.1864 9.15086 86.4616 9.13251C86.4891 9.12333 86.535 9.11874 86.5993 9.11874V10.3987C86.324 10.4354 86.0166 10.4538 85.6771 10.4538C85.278 10.4538 84.9133 10.3804 84.583 10.2336C84.2526 10.0867 83.9889 9.86424 83.7916 9.56604C83.5943 9.26326 83.498 8.89395 83.5026 8.45812V4.05393H82.4015V2.88407H83.5026V1.09487H84.9614V2.88407H86.4891V4.05393ZM93.6553 2.88407H95.1142V10.3574H93.6828V9.06369H93.6003C93.4213 9.48117 93.1392 9.81837 92.7538 10.0753C92.3685 10.3276 91.9074 10.4538 91.3706 10.4538C90.8843 10.4538 90.4554 10.346 90.0838 10.1303C89.7122 9.91471 89.4232 9.59586 89.2167 9.1738C89.0103 8.75173 88.907 8.23791 88.907 7.63233V2.88407H90.3797V7.45341C90.3797 7.78831 90.4439 8.08193 90.5724 8.33425C90.7008 8.58657 90.8775 8.78155 91.1023 8.91918C91.3316 9.05222 91.5954 9.11874 91.8936 9.11874C92.1781 9.11874 92.4556 9.04993 92.7263 8.9123C92.997 8.77008 93.2195 8.55905 93.3938 8.2792C93.5681 7.99476 93.6553 7.65068 93.6553 7.24697V2.88407ZM97.8899 2.88407H99.3075V4.06769H99.3901C99.5277 3.66856 99.7686 3.35431 100.113 3.12492C100.457 2.89095 100.849 2.77396 101.289 2.77396C101.5 2.77396 101.707 2.78314 101.909 2.80149V4.20532C101.826 4.18697 101.709 4.16862 101.558 4.15027C101.411 4.13192 101.271 4.12275 101.138 4.12275C100.803 4.12275 100.5 4.19615 100.23 4.34296C99.959 4.48517 99.7457 4.68474 99.5897 4.94165C99.4383 5.19397 99.3626 5.4807 99.3626 5.80184V10.3574H97.8899V2.88407ZM106.969 10.5088C106.244 10.5088 105.614 10.3505 105.077 10.034C104.545 9.71744 104.134 9.27014 103.845 8.69209C103.561 8.11404 103.418 7.43965 103.418 6.66892C103.418 5.90736 103.561 5.23297 103.845 4.64574C104.134 4.05852 104.54 3.60204 105.063 3.27632C105.586 2.95059 106.189 2.78773 106.873 2.78773C107.474 2.78773 108.024 2.91848 108.524 3.17998C109.024 3.44147 109.426 3.85437 109.729 4.41865C110.036 4.97835 110.19 5.68715 110.19 6.54505V7.06805H104.877C104.891 7.5314 104.985 7.93283 105.159 8.27232C105.338 8.60722 105.584 8.86183 105.896 9.03617C106.208 9.2105 106.57 9.29766 106.983 9.29766C107.382 9.29766 107.719 9.22426 107.995 9.07746C108.27 8.92606 108.474 8.72879 108.607 8.48564H110.093C109.983 8.88936 109.786 9.24491 109.502 9.55228C109.217 9.85507 108.857 10.0913 108.421 10.2611C107.99 10.4262 107.506 10.5088 106.969 10.5088ZM108.745 5.967C108.745 5.58622 108.667 5.24673 108.511 4.94853C108.359 4.65033 108.144 4.41865 107.864 4.2535C107.584 4.08375 107.258 3.99888 106.887 3.99888C106.506 3.99888 106.166 4.08834 105.868 4.26726C105.575 4.44159 105.343 4.68015 105.173 4.98294C105.003 5.28114 104.907 5.60916 104.884 5.967H108.745ZM123.93 3.64104C123.848 3.22356 123.685 2.86572 123.442 2.56752C123.198 2.26473 122.896 2.03535 122.533 1.87936C122.175 1.72338 121.783 1.64539 121.357 1.64539C120.778 1.64539 120.262 1.7922 119.808 2.08581C119.354 2.37484 118.998 2.7992 118.742 3.3589C118.485 3.91859 118.356 4.59069 118.356 5.37519C118.356 6.15968 118.485 6.83407 118.742 7.39836C119.003 7.95806 119.359 8.38242 119.808 8.67144C120.262 8.96047 120.778 9.10498 121.357 9.10498C121.779 9.10498 122.169 9.02928 122.526 8.87789C122.884 8.72191 123.185 8.49711 123.428 8.2035C123.676 7.9053 123.843 7.54975 123.93 7.13686L125.458 7.15062C125.352 7.80208 125.112 8.38242 124.735 8.89165C124.364 9.3963 123.884 9.79084 123.297 10.0753C122.714 10.3551 122.063 10.4951 121.343 10.4951C120.476 10.4951 119.703 10.2886 119.024 9.87571C118.345 9.46282 117.813 8.87101 117.427 8.10028C117.046 7.32496 116.856 6.41659 116.856 5.37519C116.856 4.33378 117.049 3.42771 117.434 2.65698C117.819 1.88166 118.352 1.28755 119.031 0.87466C119.71 0.461767 120.48 0.255321 121.343 0.255321C122.045 0.255321 122.687 0.390658 123.27 0.661332C123.852 0.927418 124.334 1.31508 124.715 1.82431C125.096 2.33355 125.343 2.93912 125.458 3.64104H123.93ZM129.431 10.3574H127.958V0.392952H129.431V10.3574ZM136.955 2.88407H138.414V10.3574H136.983V9.06369H136.9C136.721 9.48117 136.439 9.81837 136.054 10.0753C135.668 10.3276 135.207 10.4538 134.67 10.4538C134.184 10.4538 133.755 10.346 133.384 10.1303C133.012 9.91471 132.723 9.59586 132.516 9.1738C132.31 8.75173 132.207 8.23791 132.207 7.63233V2.88407H133.679V7.45341C133.679 7.78831 133.744 8.08193 133.872 8.33425C134.001 8.58657 134.177 8.78155 134.402 8.91918C134.631 9.05222 134.895 9.11874 135.193 9.11874C135.478 9.11874 135.755 9.04993 136.026 8.9123C136.297 8.77008 136.519 8.55905 136.694 8.2792C136.868 7.99476 136.955 7.65068 136.955 7.24697V2.88407ZM141.314 0.392952H142.772V4.09522H142.855C142.993 3.86125 143.137 3.6548 143.289 3.47588C143.44 3.29696 143.658 3.13869 143.942 3.00106C144.227 2.85884 144.58 2.78773 145.002 2.78773C145.608 2.78773 146.149 2.94142 146.626 3.24879C147.103 3.55617 147.477 4.00117 147.748 4.58381C148.018 5.16186 148.154 5.84772 148.154 6.64139C148.154 7.43047 148.018 8.11633 147.748 8.69897C147.482 9.28161 147.11 9.72891 146.633 10.0409C146.16 10.3528 145.621 10.5088 145.016 10.5088C144.598 10.5088 144.245 10.44 143.956 10.3024C143.672 10.1602 143.449 9.99729 143.289 9.81378C143.128 9.62568 142.983 9.41694 142.855 9.18756H142.745V10.3574H141.314V0.392952ZM142.745 6.61386C142.745 7.13686 142.821 7.59792 142.972 7.99705C143.123 8.39618 143.346 8.70585 143.64 8.92606C143.933 9.14627 144.282 9.25638 144.686 9.25638C145.103 9.25638 145.459 9.14398 145.752 8.91918C146.05 8.6898 146.275 8.37554 146.427 7.97641C146.578 7.57728 146.654 7.1231 146.654 6.61386C146.654 6.11381 146.578 5.67109 146.427 5.28573C146.28 4.89577 146.057 4.59069 145.759 4.37048C145.465 4.15027 145.108 4.04017 144.686 4.04017C144.273 4.04017 143.922 4.14568 143.633 4.35672C143.344 4.56775 143.123 4.86825 142.972 5.2582C142.821 5.64357 142.745 6.09545 142.745 6.61386Z" fill="white"/>
</svg>
