<svg width="151" height="14" viewBox="0 0 151 14" fill="none" xmlns="http://www.w3.org/2000/svg">
<path d="M8.06205 0.125617V10.4138H6.82183V5.67841H1.36769V10.4138H0.127472V0.125617H1.36769V4.57913H6.82183V0.125617H8.06205ZM14.2609 9.39907C15.5857 9.39907 16.5159 8.32797 16.5159 6.7777C16.5159 5.24152 15.5857 4.17042 14.2609 4.17042C12.9362 4.17042 12.0201 5.24152 12.0201 6.7777C12.0201 8.32797 12.9362 9.39907 14.2609 9.39907ZM10.7799 6.7777C10.7799 4.62141 12.2174 3.09932 14.2609 3.09932C16.3186 3.09932 17.7561 4.62141 17.7561 6.7777C17.7561 8.93399 16.3186 10.4561 14.2609 10.4561C12.2174 10.4561 10.7799 8.93399 10.7799 6.7777ZM25.2418 6.24215C25.2418 5.03012 24.5371 4.2127 23.4519 4.2127C22.2681 4.2127 21.3943 5.14287 21.4084 6.24215V10.4138H20.1682V3.12751H21.4084V4.36773C21.8735 3.64897 22.7332 3.1416 23.5224 3.1416C25.129 3.1416 26.482 4.18451 26.482 6.17168V10.4138H25.2418V6.24215ZM32.4063 9.42726C33.7029 9.42726 34.6894 8.22932 34.6894 6.81998C34.6894 5.43883 33.6888 4.24089 32.4063 4.24089C31.0674 4.24089 30.1373 5.29789 30.1373 6.81998C30.1373 8.35616 31.0674 9.42726 32.4063 9.42726ZM28.897 6.81998C28.897 4.67778 30.3205 3.18388 32.3499 3.18388C33.3083 3.18388 34.2243 3.66306 34.6894 4.55094V3.12751H35.9296V10.0333C35.9156 12.1332 34.5344 13.613 32.3499 13.613C31.1661 13.613 30.0809 13.1479 29.3621 12.0204L30.3487 11.3862C30.8842 12.1755 31.5325 12.5278 32.3499 12.5278C33.8156 12.5278 34.6894 11.5131 34.6894 10.0896V9.06083C34.1539 9.94871 33.1814 10.4843 32.3499 10.4843C30.3205 10.4843 28.897 8.97627 28.897 6.81998ZM38.8516 3.1557H40.0918V10.4138H38.8516V3.1557ZM38.7248 0.71754C38.7248 0.294738 39.0348 -0.00122312 39.4717 -0.00122312C39.8945 -0.00122312 40.2046 0.294738 40.2046 0.71754C40.2046 1.15443 39.8945 1.46449 39.4717 1.46449C39.0348 1.46449 38.7248 1.15443 38.7248 0.71754ZM44.3399 0.125617V6.69314L47.3981 3.12751H49.0471L46.2707 6.3549L49.1034 10.4138H47.5955L45.3828 7.27097L44.3399 8.53937V10.4138H43.0997V0.125617H44.3399ZM65.6405 0.125617L61.5252 10.4138H60.1441L55.8174 0.125617H57.1563L60.8206 9.00446L64.3016 0.125617H65.6405ZM72.3585 6.29852C72.2458 5.25561 71.7243 4.17042 70.3009 4.17042C69.1312 4.17042 68.2151 5.0724 68.046 6.31262L72.3585 6.29852ZM66.8198 6.7777C66.8198 4.62141 68.2433 3.11342 70.2727 3.11342C72.5418 3.11342 73.2041 4.93146 73.2605 5.08649C73.6974 6.18578 73.5424 7.24278 73.5424 7.31325H68.046C68.2151 8.53937 69.1734 9.38498 70.2868 9.38498C71.8089 9.38498 72.2599 8.45481 72.3444 8.34207L73.331 8.84943C73.331 8.84943 72.6686 10.442 70.2727 10.442C68.2433 10.442 66.8198 8.93399 66.8198 6.7777ZM81.0891 6.24215C81.0891 5.03012 80.3844 4.2127 79.2992 4.2127C78.1154 4.2127 77.2416 5.14287 77.2557 6.24215V10.4138H76.0154V3.12751H77.2557V4.36773C77.7207 3.64897 78.5804 3.1416 79.3697 3.1416C80.9763 3.1416 82.3293 4.18451 82.3293 6.17168V10.4138H81.0891V6.24215ZM88.6115 10.1601C88.3297 10.2588 88.0478 10.3856 87.4982 10.3856C86.3143 10.3856 85.4687 9.54 85.4687 8.32797V4.25498H84.2567V3.16979H85.4687V1.239H86.7089V3.16979H88.5552V4.25498H86.7089V8.32797C86.7089 8.89171 87.0613 9.28632 87.5545 9.28632C87.8787 9.30042 88.2451 9.1313 88.2733 9.1172L88.6115 10.1601ZM92.1523 7.32734C92.1523 8.52528 92.8992 9.3427 93.9703 9.3427C95.1683 9.3427 95.9998 8.51119 95.9998 7.31325V3.12751H97.24V10.4138H95.9998V9.18767C95.5347 9.89234 94.6609 10.3997 93.8999 10.3997C92.1523 10.3997 90.9121 9.18767 90.9121 7.426V3.12751H92.1523V7.32734ZM101.23 4.59322C101.624 3.70534 102.639 3.08523 103.682 3.08523V4.24089C102.315 4.24089 101.23 5.45292 101.23 6.72133V10.4138H99.9896V3.12751H101.23V4.59322ZM110.873 6.29852C110.76 5.25561 110.239 4.17042 108.816 4.17042C107.646 4.17042 106.73 5.0724 106.561 6.31262L110.873 6.29852ZM105.334 6.7777C105.334 4.62141 106.758 3.11342 108.787 3.11342C111.056 3.11342 111.719 4.93146 111.775 5.08649C112.212 6.18578 112.057 7.24278 112.057 7.31325H106.561C106.73 8.53937 107.688 9.38498 108.801 9.38498C110.324 9.38498 110.774 8.45481 110.859 8.34207L111.846 8.84943C111.846 8.84943 111.183 10.442 108.787 10.442C106.758 10.442 105.334 8.93399 105.334 6.7777ZM124.114 10.5265C121.126 10.5265 119.04 8.35616 119.04 5.26971C119.04 2.18325 121.126 0.0128701 124.114 0.0128701C125.523 0.0128701 126.777 0.618886 127.693 1.54905L126.862 2.31009C126.199 1.56314 125.171 1.11215 124.099 1.11215C121.845 1.11215 120.294 2.80336 120.294 5.26971C120.294 7.73605 121.845 9.42726 124.099 9.42726C125.213 9.42726 126.171 8.96218 126.819 8.24341L127.693 8.99036C126.777 9.92053 125.551 10.5265 124.114 10.5265ZM130.277 0.125617H131.518V10.4138H130.277V0.125617ZM135.603 7.32734C135.603 8.52528 136.35 9.3427 137.421 9.3427C138.619 9.3427 139.451 8.51119 139.451 7.31325V3.12751H140.691V10.4138H139.451V9.18767C138.986 9.89234 138.112 10.3997 137.351 10.3997C135.603 10.3997 134.363 9.18767 134.363 7.426V3.12751H135.603V7.32734ZM147.133 10.4984C146.457 10.4984 145.442 10.2024 144.766 9.10311V10.4138H143.525V0.125617H144.766V4.52276C145.442 3.42347 146.457 3.12751 147.147 3.12751C149.177 3.12751 150.628 4.6496 150.628 6.80589C150.628 8.97627 149.177 10.4984 147.133 10.4984ZM144.766 6.81998C144.766 8.2716 145.823 9.45544 147.077 9.45544C148.444 9.45544 149.388 8.37025 149.388 6.81998C149.388 5.26971 148.444 4.19861 147.077 4.19861C145.823 4.19861 144.766 5.38245 144.766 6.81998Z" fill="white"/>
</svg>
