<svg width="397" height="37" viewBox="0 0 397 37" fill="none" xmlns="http://www.w3.org/2000/svg">
<path d="M21.2029 1.14493V28.199H17.9416V15.7467H3.5992V28.199H0.33788V1.14493H3.5992V12.856H17.9416V1.14493H21.2029ZM37.5037 25.5307C40.9874 25.5307 43.4333 22.7141 43.4333 18.6374C43.4333 14.5979 40.9874 11.7813 37.5037 11.7813C34.02 11.7813 31.6111 14.5979 31.6111 18.6374C31.6111 22.7141 34.02 25.5307 37.5037 25.5307ZM28.3498 18.6374C28.3498 12.9672 32.1299 8.96467 37.5037 8.96467C42.9145 8.96467 46.6947 12.9672 46.6947 18.6374C46.6947 24.3077 42.9145 28.3102 37.5037 28.3102C32.1299 28.3102 28.3498 24.3077 28.3498 18.6374ZM66.3792 17.2291C66.3792 14.0419 64.5262 11.8924 61.6726 11.8924C58.5595 11.8924 56.2617 14.3384 56.2988 17.2291V28.199H53.0375V9.03879H56.2988V12.3001C57.5218 10.41 59.7825 9.07585 61.8579 9.07585C66.0827 9.07585 69.6405 11.8183 69.6405 17.0438V28.199H66.3792V17.2291ZM85.2192 25.6048C88.6288 25.6048 91.223 22.4547 91.223 18.7486C91.223 15.1167 88.5917 11.9666 85.2192 11.9666C81.6985 11.9666 79.2525 14.7461 79.2525 18.7486C79.2525 22.7882 81.6985 25.6048 85.2192 25.6048ZM75.9912 18.7486C75.9912 13.1154 79.7343 9.18703 85.071 9.18703C87.5911 9.18703 90 10.4471 91.223 12.7819V9.03879H94.4843V27.1984C94.4473 32.7204 90.8154 36.6117 85.071 36.6117C81.9579 36.6117 79.1043 35.3887 77.2142 32.4239L79.8084 30.7562C81.2167 32.8316 82.9215 33.7581 85.071 33.7581C88.9253 33.7581 91.223 31.0897 91.223 27.3466V24.6412C89.8147 26.976 87.2576 28.3843 85.071 28.3843C79.7343 28.3843 75.9912 24.4189 75.9912 18.7486ZM102.168 9.11291H105.429V28.199H102.168V9.11291ZM101.834 2.70146C101.834 1.58965 102.65 0.811383 103.799 0.811383C104.91 0.811383 105.726 1.58965 105.726 2.70146C105.726 3.85033 104.91 4.66566 103.799 4.66566C102.65 4.66566 101.834 3.85033 101.834 2.70146ZM116.6 1.14493V18.4151L124.642 9.03879H128.978L121.677 17.5256L129.127 28.199H125.161L119.343 19.9346L116.6 23.27V28.199H113.339V1.14493H116.6ZM172.613 1.14493L161.791 28.199H158.159L146.782 1.14493H150.303L159.938 24.493L169.092 1.14493H172.613ZM190.279 17.3774C189.982 14.6349 188.611 11.7813 184.868 11.7813C181.792 11.7813 179.383 14.1531 178.938 17.4144L190.279 17.3774ZM175.714 18.6374C175.714 12.9672 179.457 9.00173 184.794 9.00173C190.761 9.00173 192.502 13.7825 192.651 14.1902C193.8 17.0809 193.392 19.8604 193.392 20.0457H178.938C179.383 23.27 181.903 25.4936 184.831 25.4936C188.833 25.4936 190.019 23.0476 190.242 22.7511L192.836 24.0853C192.836 24.0853 191.094 28.2731 184.794 28.2731C179.457 28.2731 175.714 24.3077 175.714 18.6374ZM213.237 17.2291C213.237 14.0419 211.384 11.8924 208.53 11.8924C205.417 11.8924 203.119 14.3384 203.156 17.2291V28.199H199.895V9.03879H203.156V12.3001C204.379 10.41 206.64 9.07585 208.716 9.07585C212.94 9.07585 216.498 11.8183 216.498 17.0438V28.199H213.237V17.2291ZM233.018 27.5319C232.277 27.7914 231.536 28.1249 230.09 28.1249C226.977 28.1249 224.754 25.9013 224.754 22.7141V12.0036H221.566V9.14997H224.754V4.0727H228.015V9.14997H232.87V12.0036H228.015V22.7141C228.015 24.1965 228.942 25.2342 230.239 25.2342C231.091 25.2713 232.055 24.8265 232.129 24.7895L233.018 27.5319ZM242.329 20.0828C242.329 23.2329 244.293 25.3824 247.11 25.3824C250.26 25.3824 252.447 23.1959 252.447 20.0457V9.03879H255.708V28.199H252.447V24.9748C251.224 26.8278 248.926 28.162 246.924 28.162C242.329 28.162 239.068 24.9748 239.068 20.3422V9.03879H242.329V20.0828ZM266.2 12.8931C267.237 10.5583 269.906 8.92761 272.648 8.92761V11.9666C269.053 11.9666 266.2 15.1538 266.2 18.4892V28.199H262.938V9.03879H266.2V12.8931ZM291.558 17.3774C291.261 14.6349 289.89 11.7813 286.147 11.7813C283.071 11.7813 280.662 14.1531 280.217 17.4144L291.558 17.3774ZM276.993 18.6374C276.993 12.9672 280.736 9.00173 286.073 9.00173C292.04 9.00173 293.782 13.7825 293.93 14.1902C295.079 17.0809 294.671 19.8604 294.671 20.0457H280.217C280.662 23.27 283.182 25.4936 286.11 25.4936C290.113 25.4936 291.299 23.0476 291.521 22.7511L294.115 24.0853C294.115 24.0853 292.373 28.2731 286.073 28.2731C280.736 28.2731 276.993 24.3077 276.993 18.6374ZM326.375 28.4955C318.519 28.4955 313.034 22.7882 313.034 14.672C313.034 6.55574 318.519 0.848442 326.375 0.848442C330.081 0.848442 333.38 2.44204 335.789 4.88803L333.602 6.88929C331.86 4.92509 329.155 3.73915 326.338 3.73915C320.409 3.73915 316.332 8.1864 316.332 14.672C316.332 21.1575 320.409 25.6048 326.338 25.6048C329.266 25.6048 331.786 24.3818 333.491 22.4917L335.789 24.4559C333.38 26.9019 330.156 28.4955 326.375 28.4955ZM342.584 1.14493H345.845V28.199H342.584V1.14493ZM356.589 20.0828C356.589 23.2329 358.554 25.3824 361.37 25.3824C364.52 25.3824 366.707 23.1959 366.707 20.0457V9.03879H369.968V28.199H366.707V24.9748C365.484 26.8278 363.186 28.162 361.185 28.162C356.589 28.162 353.328 24.9748 353.328 20.3422V9.03879H356.589V20.0828ZM386.909 28.4214C385.13 28.4214 382.461 27.6431 380.682 24.7524V28.199H377.421V1.14493H380.682V12.7078C382.461 9.81706 385.13 9.03879 386.946 9.03879C392.282 9.03879 396.1 13.0413 396.1 18.7116C396.1 24.4189 392.282 28.4214 386.909 28.4214ZM380.682 18.7486C380.682 22.5658 383.462 25.6789 386.76 25.6789C390.355 25.6789 392.838 22.8253 392.838 18.7486C392.838 14.672 390.355 11.8554 386.76 11.8554C383.462 11.8554 380.682 14.9685 380.682 18.7486Z" fill="black"/>
</svg>
