<svg width="149" height="14" viewBox="0 0 149 14" fill="none" xmlns="http://www.w3.org/2000/svg">
<path d="M0.0184679 10.3574V0.392952H1.53241V4.71456H6.48712V0.392952H8.00105V10.3574H6.48712V6.00829H1.53241V10.3574H0.0184679ZM14.0662 10.5088C11.9467 10.5088 10.5635 8.96735 10.5703 6.65515C10.5635 4.32919 11.9467 2.78773 14.0662 2.78773C16.1719 2.78773 17.5482 4.32919 17.5482 6.65515C17.5482 8.96735 16.1719 10.5088 14.0662 10.5088ZM12.043 6.65515C12.043 8.07963 12.6967 9.2839 14.0662 9.2839C15.415 9.2839 16.0618 8.07963 16.0618 6.65515C16.0618 5.22379 15.415 4.00576 14.0662 3.99888C12.6967 4.00576 12.043 5.22379 12.043 6.65515ZM21.4525 5.92571V10.3574H19.9799V2.88407H21.3975V4.10898H21.4801C21.831 3.30384 22.5673 2.78773 23.6822 2.78773C25.2167 2.78773 26.2352 3.75802 26.2283 5.60916V10.3574H24.7694V5.78808C24.7626 4.7008 24.1776 4.05393 23.1867 4.05393C22.1751 4.05393 21.4525 4.7352 21.4525 5.92571ZM32.142 13.3165C30.2565 13.3165 29.0109 12.4838 28.8802 11.0869H30.3804C30.5249 11.7957 31.1855 12.1397 32.1558 12.1329C33.3257 12.1397 34.062 11.6305 34.0689 10.4675V8.99488H33.9725C33.711 9.47658 33.1743 10.2473 31.798 10.2473C30.0363 10.2473 28.6738 8.93294 28.6738 6.54505C28.6738 4.15715 30.0157 2.78773 31.8117 2.78773C33.2018 2.78773 33.711 3.62728 33.9863 4.09522H34.0826V2.88407H35.514V10.5226C35.5209 12.4425 34.0689 13.3165 32.142 13.3165ZM30.1739 6.57257C30.167 8.03834 30.8414 9.02928 32.1283 9.03617C33.3807 9.02928 34.0826 8.11404 34.0826 6.57257C34.0826 5.05864 33.3945 4.03329 32.1283 4.04017C30.8277 4.03329 30.167 5.14121 30.1739 6.57257ZM38.2897 10.3574V2.88407H39.7624V10.3574H38.2897ZM38.0971 0.860896C38.1039 0.379189 38.5237 -0.00617763 39.0329 -0.00617763C39.5353 -0.00617763 39.9551 0.379189 39.9551 0.860896C39.9551 1.3426 39.5353 1.73485 39.0329 1.72797C38.5237 1.73485 38.1039 1.3426 38.0971 0.860896ZM42.5381 10.3574V0.392952H44.0108V6.03581H44.1346L47.0937 2.88407H48.8554L45.8344 6.09087L49.0618 10.3574H47.2589L44.7196 6.99923L44.0108 7.70115V10.3574H42.5381ZM56.43 0.392952L59.1964 8.49941H59.3065L62.0729 0.392952H63.7107L60.1185 10.3574H58.3706L54.7922 0.392952H56.43ZM68.3032 10.5088C66.1011 10.5088 64.7454 8.988 64.7523 6.66892C64.7454 4.37048 66.1217 2.78773 68.2068 2.78773C69.9066 2.78773 71.5237 3.8406 71.5237 6.54505V7.06805H66.2112C66.2525 8.49252 67.092 9.29766 68.3169 9.29766C69.1496 9.29766 69.6932 8.93982 69.941 8.48564H71.4274C71.0971 9.69679 69.9479 10.5088 68.3032 10.5088ZM66.2181 5.967H70.0786C70.0786 4.83155 69.3423 3.992 68.2206 3.99888C67.0438 3.992 66.28 4.91412 66.2181 5.967ZM75.4418 5.92571V10.3574H73.9691V2.88407H75.3867V4.10898H75.4693C75.8203 3.30384 76.5566 2.78773 77.6714 2.78773C79.206 2.78773 80.2245 3.75802 80.2176 5.60916V10.3574H78.7587V5.78808C78.7518 4.7008 78.1669 4.05393 77.1759 4.05393C76.1644 4.05393 75.4418 4.7352 75.4418 5.92571ZM86.4891 2.88407V4.05393H84.9614V8.15533C84.9683 9.00176 85.3812 9.15315 85.856 9.16003C86.0694 9.16003 86.3928 9.13939 86.5993 9.11874V10.3987C86.3997 10.4262 86.0831 10.4538 85.6771 10.4538C84.5279 10.4538 83.4888 9.82066 83.5026 8.45812V4.05393H82.4015V2.88407H83.5026V1.09487H84.9614V2.88407H86.4891ZM93.6553 7.24697V2.88407H95.1142V10.3574H93.6828V9.06369H93.6003C93.2562 9.86195 92.4923 10.4538 91.3706 10.4538C89.9255 10.4538 88.907 9.48347 88.907 7.63233V2.88407H90.3797V7.45341C90.3797 8.47188 90.999 9.11874 91.8936 9.11874C92.7125 9.11874 93.6553 8.52005 93.6553 7.24697ZM97.8899 10.3574V2.88407H99.3075V4.06769H99.3901C99.6654 3.26944 100.415 2.76708 101.289 2.77396C101.468 2.76708 101.757 2.78773 101.909 2.80149V4.20532C101.785 4.1778 101.441 4.11586 101.138 4.12275C100.12 4.11586 99.3626 4.82466 99.3626 5.80184V10.3574H97.8899ZM106.969 10.5088C104.767 10.5088 103.411 8.988 103.418 6.66892C103.411 4.37048 104.788 2.78773 106.873 2.78773C108.573 2.78773 110.19 3.8406 110.19 6.54505V7.06805H104.877C104.918 8.49252 105.758 9.29766 106.983 9.29766C107.816 9.29766 108.359 8.93982 108.607 8.48564H110.093C109.763 9.69679 108.614 10.5088 106.969 10.5088ZM104.884 5.967H108.745C108.745 4.83155 108.008 3.992 106.887 3.99888C105.71 3.992 104.946 4.91412 104.884 5.967ZM123.93 3.64104C123.689 2.35419 122.623 1.63851 121.357 1.64539C119.636 1.63851 118.363 2.95977 118.356 5.37519C118.363 7.80437 119.643 9.11186 121.357 9.10498C122.609 9.11186 123.669 8.40995 123.93 7.13686L125.458 7.15062C125.141 9.11874 123.538 10.4951 121.343 10.4951C118.748 10.4951 116.856 8.56134 116.856 5.37519C116.856 2.18903 118.762 0.255321 121.343 0.255321C123.449 0.255321 125.121 1.50088 125.458 3.64104H123.93ZM129.431 0.392952V10.3574H127.958V0.392952H129.431ZM136.955 7.24697V2.88407H138.414V10.3574H136.983V9.06369H136.9C136.556 9.86195 135.792 10.4538 134.67 10.4538C133.225 10.4538 132.207 9.48347 132.207 7.63233V2.88407H133.679V7.45341C133.679 8.47188 134.299 9.11874 135.193 9.11874C136.012 9.11874 136.955 8.52005 136.955 7.24697ZM141.314 10.3574V0.392952H142.772V4.09522H142.855C143.123 3.62728 143.619 2.78773 145.002 2.78773C146.812 2.78773 148.147 4.20532 148.154 6.64139C148.147 9.04993 146.826 10.5019 145.016 10.5088C143.66 10.5019 143.13 9.67615 142.855 9.18756H142.745V10.3574H141.314ZM142.745 6.61386C142.745 8.18286 143.447 9.24949 144.686 9.25638C145.979 9.24949 146.654 8.11404 146.654 6.61386C146.654 5.14121 146 4.03329 144.686 4.04017C143.426 4.03329 142.745 5.05864 142.745 6.61386Z" fill="white"/>
</svg>
