<svg width="146" height="67" viewBox="0 0 146 67" fill="none" xmlns="http://www.w3.org/2000/svg">
<path fill-rule="evenodd" clip-rule="evenodd" d="M0.0703125 1.84473L16.4727 63.065H29.6409L24.2806 43.0584H41.5928L37.8387 30.3523H20.8763L13.2384 1.84473H0.0703125Z" fill="white"/>
<path fill-rule="evenodd" clip-rule="evenodd" d="M67.601 63.5966L52.8913 15.6477L39.4922 15.1279L53.7477 63.5966H67.601Z" fill="white"/>
<path fill-rule="evenodd" clip-rule="evenodd" d="M112.08 12.1567L128.23 0L132.352 12.7915L116.371 24.8208L119.176 33.1023L135.113 21.3612L139.265 34.2462L136.922 36.0185L123.469 45.7719L126.212 53.8682L141.805 42.1311L145.861 54.7176L130.335 66.0365L130.362 66.1157L130.263 66.0891L129.761 66.4553L129.585 65.9066L114.287 61.7877L101.303 20.3715L112.045 12.0548L112.08 12.1567Z" fill="white"/>
<path fill-rule="evenodd" clip-rule="evenodd" d="M89.6834 63.0325L91.5505 60.0453L102.253 42.819L97.4886 26.7922L83.9014 47.696L80.4067 36.3044H66.899L74.7603 63.0325H89.6834ZM78.2207 29.1789L74.073 15.6585L60.6738 15.1387L64.8033 29.1789H78.2207Z" fill="white"/>
</svg>
